<?xml version="1.0" encoding="UTF-8"?>
<svg width="29px" height="38px" viewBox="0 0 29 38" version="1.1" xmlns="http://www.w3.org/2000/svg" xmlns:xlink="http://www.w3.org/1999/xlink">
    <!-- Generator: Sketch 52.5 (67469) - http://www.bohemiancoding.com/sketch -->
    <title>Currency/file</title>
    <desc>Created with Sketch.</desc>
    <g id="Currency/file" stroke="none" stroke-width="1" fill="none" fill-rule="evenodd">
        <g id="file" fill-rule="nonzero">
            <path d="M2,0 L19,0 L29,10 L29,36 C29,37.1045695 28.1045695,38 27,38 L2,38 C0.8954305,38 1.3527075e-16,37.1045695 0,36 L0,2 C-1.3527075e-16,0.8954305 0.8954305,2.02906125e-16 2,0 Z" id="Rectangle" fill="#1DCC25"></path>
            <path d="M19,1.13686838e-13 L19,9 C19,9.55228475 19.4477153,10 20,10 L29,10 L19,1.13686838e-13 Z" id="Path-2" fill="#18A21E"></path>
            <path d="M18,22 L20,22 L20,29 L18,29 L18,22 Z M15,19 L17,19 L17,29 L15,29 L15,19 Z M12,24 L14,24 L14,29 L12,29 L12,24 Z M9,26 L11,26 L11,29 L9,29 L9,26 Z" id="Combined-Shape" fill="#FFFFFF"></path>
        </g>
    </g>
</svg>