<?xml version="1.0" encoding="UTF-8"?>
<svg width="29px" height="34px" viewBox="0 0 29 34" version="1.1" xmlns="http://www.w3.org/2000/svg" xmlns:xlink="http://www.w3.org/1999/xlink">
    <!-- Generator: Sketch 52.5 (67469) - http://www.bohemiancoding.com/sketch -->
    <title>Currency/hb</title>
    <desc>Created with Sketch.</desc>
    <g id="Currency/hb" stroke="none" stroke-width="1" fill="none" fill-rule="evenodd">
        <g id="hb" fill-rule="nonzero">
            <rect id="Rectangle" fill="#D83D1D" x="0" y="0" width="29" height="34" rx="2"></rect>
            <path d="M2,-1.77635684e-15 L27,-3.33066907e-15 C28.1045695,-3.5335752e-15 29,0.8954305 29,2 L29,10.5584816 C29,11.4193424 28.4491398,12.1836201 27.6324555,12.4558482 L14,17 L1.32732721,12.4740454 C0.531341275,12.1897647 -4.10593202e-14,11.4357889 -4.04121181e-14,10.5905616 L-4.4408921e-14,2 C-4.45441917e-14,0.8954305 0.8954305,-1.79549532e-15 2,-1.99840144e-15 Z" id="Rectangle" fill="#EF4B2D"></path>
            <path d="M14.5,20 C11.4624339,20 9,17.5375661 9,14.5 C9,11.4624339 11.4624339,9 14.5,9 C17.5375661,9 20,11.4624339 20,14.5 C20,17.5375661 17.5375661,20 14.5,20 Z M16.4492188,11.9492188 L15.6328125,11.9492188 L14.59375,14.0820312 C14.5104163,14.2513029 14.4427086,14.4101555 14.390625,14.5585938 L14.375,14.5585938 C14.302083,14.373697 14.2369795,14.2213548 14.1796875,14.1015625 L13.1445312,11.9492188 L12.2734375,11.9492188 L13.7539062,14.7109375 L12.5429688,14.7109375 L12.5429688,15.3203125 L13.9804688,15.3203125 L13.9804688,16.1679688 L12.5429688,16.1679688 L12.5429688,16.78125 L13.9804688,16.78125 L13.9804688,18 L14.7421875,18 L14.7421875,16.78125 L16.1367188,16.78125 L16.1367188,16.1679688 L14.7421875,16.1679688 L14.7421875,15.3203125 L16.1367188,15.3203125 L16.1367188,14.7109375 L14.9492188,14.7109375 L16.4492188,11.9492188 Z" id="Combined-Shape" fill="#F6DB9F"></path>
        </g>
    </g>
</svg>