<?xml version="1.0" encoding="UTF-8"?>
<svg width="29px" height="34px" viewBox="0 0 29 34" version="1.1" xmlns="http://www.w3.org/2000/svg" xmlns:xlink="http://www.w3.org/1999/xlink">
    <!-- Generator: Sketch 52.5 (67469) - http://www.bohemiancoding.com/sketch -->
    <title>Currency/hb_hp</title>
    <desc>Created with Sketch.</desc>
    <g id="Currency/hb_hp" stroke="none" stroke-width="1" fill="none" fill-rule="evenodd">
        <g id="hb" fill-rule="nonzero">
            <path d="M2,5 L27,5 C28.1045695,5 29,5.8954305 29,7 L29,32 C29,33.1045695 28.1045695,34 27,34 L2,34 C0.8954305,34 1.3527075e-16,33.1045695 0,32 L0,7 C-1.3527075e-16,5.8954305 0.8954305,5 2,5 Z" id="Rectangle" fill="#D83D1D"></path>
            <path d="M14.5,20 C11.4624339,20 9,17.5375661 9,14.5 C9,11.4624339 11.4624339,9 14.5,9 C17.5375661,9 20,11.4624339 20,14.5 C20,17.5375661 17.5375661,20 14.5,20 Z M16.4492188,11.9492188 L15.6328125,11.9492188 L14.59375,14.0820312 C14.5104163,14.2513029 14.4427086,14.4101555 14.390625,14.5585938 L14.375,14.5585938 C14.302083,14.373697 14.2369795,14.2213548 14.1796875,14.1015625 L13.1445312,11.9492188 L12.2734375,11.9492188 L13.7539062,14.7109375 L12.5429688,14.7109375 L12.5429688,15.3203125 L13.9804688,15.3203125 L13.9804688,16.1679688 L12.5429688,16.1679688 L12.5429688,16.78125 L13.9804688,16.78125 L13.9804688,18 L14.7421875,18 L14.7421875,16.78125 L16.1367188,16.78125 L16.1367188,16.1679688 L14.7421875,16.1679688 L14.7421875,15.3203125 L16.1367188,15.3203125 L16.1367188,14.7109375 L14.9492188,14.7109375 L16.4492188,11.9492188 Z" id="Combined-Shape" fill="#F6DB9F"></path>
            <path d="M0.767160533,1.81225735 C5.81348325,0.604085784 10.5577631,-1.39482258e-14 15,-1.42108547e-14 C19.420402,-1.42108547e-14 23.8408039,0.598161845 28.2612059,1.79448553 L28.2612145,1.79445381 C28.6972184,1.91245254 29,2.30807059 29,2.75975974 L29.0000184,8.89831812 C29.0000184,9.60227193 28.6299359,10.2543909 28.0255796,10.6153679 C24.2478251,12.8717893 19.9059652,14 15,14 C10.0737124,14 5.4318191,12.862423 1.07432002,10.587269 L1.07432555,10.5872584 C0.413997732,10.2424855 -4.34204877e-14,9.55929597 -4.21884749e-14,8.81437908 L-1.44056507e-05,2.78478735 C-1.44056507e-05,2.32218702 0.317274319,1.91996741 0.767160533,1.81225735 Z" id="Rectangle" fill="#FFFFFF" transform="translate(14.500002, 7.000000) scale(1, -1) translate(-14.500002, -7.000000) "></path>
        </g>
    </g>
</svg>